<?xml version="1.0" encoding="utf-8"?>
<!-- Generator: Adobe Illustrator 25.1.0, SVG Export Plug-In . SVG Version: 6.00 Build 0)  -->
<svg version="1.1" id="Capa_1" xmlns="http://www.w3.org/2000/svg" xmlns:xlink="http://www.w3.org/1999/xlink" x="0px" y="0px"
	 viewBox="0 0 362.22 81.78" style="enable-background:new 0 0 362.22 81.78;" xml:space="preserve">
<style type="text/css">
	.st0{clip-path:url(#SVGID_2_);fill:#404042;}
	.st1{clip-path:url(#SVGID_2_);fill:#F2754A;}
	.st2{clip-path:url(#SVGID_2_);}
	.st3{clip-path:url(#SVGID_4_);}
	.st4{clip-path:url(#SVGID_6_);}
</style>
<g>
	<g>
		<defs>
			<rect id="SVGID_1_" x="5" y="7.73" width="354.35" height="69.61"/>
		</defs>
		<clipPath id="SVGID_2_">
			<use xlink:href="#SVGID_1_"  style="overflow:visible;"/>
		</clipPath>
		<path class="st0" d="M101.58,30.7h2.93l-1.38-10.44L101.58,30.7z M105.84,7.73c0.32,0,0.43,0.27,0.43,0.43l6.02,36.97
			c0,0.27-0.16,0.43-0.43,0.43h-5.01c-0.21,0-0.43-0.16-0.43-0.43l-1.22-9.03h-4.42l-1.33,9.03c0,0.27-0.16,0.43-0.43,0.43h-5
			c-0.27,0-0.43-0.16-0.43-0.43l6.34-36.97c0-0.16,0.1-0.43,0.43-0.43H105.84z"/>
		<path class="st0" d="M117.71,45.56c-0.32,0-0.43-0.27-0.43-0.43V8.16c0-0.27,0.16-0.43,0.43-0.43h4.79c0.27,0,0.43,0.16,0.43,0.43
			v31.95h5.11c0.27,0,0.43,0.21,0.43,0.43v4.59c0,0.33-0.16,0.43-0.43,0.43H117.71z"/>
		<path class="st0" d="M133.89,45.56c-0.32,0-0.43-0.27-0.43-0.43V8.16c0-0.27,0.16-0.43,0.43-0.43h4.79c0.27,0,0.43,0.16,0.43,0.43
			v36.97c0,0.33-0.16,0.43-0.43,0.43H133.89z"/>
		<path class="st0" d="M152.1,30.7h2.93l-1.38-10.44L152.1,30.7z M156.36,7.73c0.32,0,0.43,0.27,0.43,0.43l6.02,36.97
			c0,0.27-0.16,0.43-0.43,0.43h-5.01c-0.21,0-0.43-0.16-0.43-0.43l-1.22-9.03h-4.42l-1.33,9.03c0,0.27-0.16,0.43-0.43,0.43h-5
			c-0.27,0-0.43-0.16-0.43-0.43l6.34-36.97c0-0.16,0.1-0.43,0.43-0.43H156.36z"/>
		<path class="st0" d="M178.77,45.56c-0.32,0-0.43-0.27-0.43-0.43l-5-18v18c0,0.33-0.16,0.43-0.43,0.43h-4.69
			c-0.32,0-0.43-0.27-0.43-0.43V8.16c0-0.27,0.16-0.43,0.43-0.43h4.79c0.27,0,0.42,0.16,0.42,0.43l5.01,18v-18
			c0-0.27,0.16-0.43,0.43-0.43h4.69c0.21,0,0.43,0.16,0.43,0.43v36.97c0,0.33-0.21,0.43-0.43,0.43H178.77z"/>
		<path class="st0" d="M195.38,40.16h8.73c0.21,0,0.37,0.16,0.37,0.38v4.59c0,0.32-0.16,0.43-0.37,0.43h-14.16
			c-0.32,0-0.43-0.27-0.43-0.43v-4.27c0-0.33,0.05-0.87,0.16-1.14l9.26-26.6h-8.68c-0.32,0-0.43-0.22-0.43-0.38V8.16
			c0-0.27,0.16-0.43,0.43-0.43h14.11c0.27,0,0.43,0.16,0.43,0.43v4.22c0,0.48-0.11,1.03-0.32,1.51L195.38,40.16z"/>
		<path class="st0" d="M215.93,30.7h2.93l-1.38-10.44L215.93,30.7z M220.19,7.73c0.32,0,0.43,0.27,0.43,0.43l6.02,36.97
			c0,0.27-0.16,0.43-0.43,0.43h-5.01c-0.21,0-0.43-0.16-0.43-0.43l-1.22-9.03h-4.42l-1.33,9.03c0,0.27-0.16,0.43-0.43,0.43h-5
			c-0.27,0-0.43-0.16-0.43-0.43l6.34-36.97c0-0.16,0.1-0.43,0.43-0.43H220.19z"/>
		<path class="st1" d="M232.05,45.56c-0.32,0-0.43-0.27-0.43-0.43V8.16c0-0.27,0.16-0.43,0.43-0.43h9.9c0.21,0,0.43,0.16,0.43,0.43
			v4.59c0,0.27-0.21,0.38-0.43,0.38h-4.69v10.49h4.69c0.21,0,0.43,0.16,0.43,0.43v4.59c0,0.33-0.21,0.43-0.43,0.43h-4.69v11.03h4.69
			c0.21,0,0.43,0.16,0.43,0.38v4.65c0,0.33-0.21,0.43-0.43,0.43H232.05z"/>
		<path class="st1" d="M254.36,29.08v16.05c0,0.32-0.16,0.43-0.43,0.43h-4.79c-0.32,0-0.42-0.27-0.42-0.43V8.16
			c0-0.27,0.16-0.43,0.42-0.43h9.9c0.21,0,0.43,0.16,0.43,0.43v4.59c0,0.27-0.21,0.38-0.43,0.38h-4.69v10.49h4.53
			c0.21,0,0.42,0.17,0.42,0.43v4.59c0,0.32-0.21,0.43-0.42,0.43H254.36z"/>
		<path class="st1" d="M265.54,45.56c-0.32,0-0.43-0.27-0.43-0.43V8.16c0-0.27,0.16-0.43,0.43-0.43h4.79c0.27,0,0.43,0.16,0.43,0.43
			v36.97c0,0.33-0.16,0.43-0.43,0.43H265.54z"/>
		<path class="st2" d="M13.97,68.47c0-0.84-0.23-1.56-0.69-2.14c-0.54-0.67-1.28-1-2.22-1c-1,0-1.81,0.32-2.43,0.96
			c-0.57,0.6-0.86,1.32-0.86,2.18H13.97z M12.36,77.34c-4.9,0-7.36-2.43-7.36-7.3c0-2.09,0.68-3.77,2.04-5.03
			c1.22-1.14,2.62-1.72,4.19-1.72c1.71,0,3.04,0.58,4,1.74c0.89,1.08,1.34,2.53,1.34,4.34v1.03H7.7c0,2.49,1,4.01,3,4.56
			c0.48,0.13,1.21,0.2,2.2,0.2s1.97-0.14,2.92-0.41V77C14.87,77.23,13.72,77.34,12.36,77.34"/>
		<path class="st2" d="M29.23,77.09c-0.52,0.17-1.42,0.25-2.7,0.25c-1.28,0-2.37-0.16-3.27-0.47c-0.9-0.32-1.66-0.78-2.29-1.4
			c-1.31-1.28-1.96-3.04-1.96-5.3c0-2.19,0.78-3.91,2.35-5.17c1.4-1.13,3.13-1.69,5.17-1.69c1.26,0,2.13,0.04,2.6,0.13v2.35
			c-0.73-0.24-1.56-0.36-2.49-0.36c-0.93,0-1.7,0.13-2.32,0.39c-0.61,0.26-1.12,0.61-1.51,1.05c-0.74,0.84-1.11,1.93-1.11,3.3
			c0,2.3,0.82,3.84,2.46,4.6c0.58,0.27,1.15,0.41,1.7,0.41c0.55,0,0.98-0.01,1.28-0.04c0.3-0.03,0.58-0.06,0.85-0.1
			c0.57-0.1,0.98-0.2,1.23-0.3V77.09z"/>
		<path class="st2" d="M34.9,70.3c0,2.25,0.71,3.78,2.13,4.59c0.5,0.28,1.11,0.42,1.81,0.42c0.7,0,1.3-0.14,1.78-0.43
			c0.48-0.29,0.88-0.66,1.2-1.13c0.58-0.9,0.87-2.05,0.87-3.46c0-2.23-0.7-3.77-2.09-4.59c-0.48-0.29-1.07-0.44-1.74-0.44
			c-0.68,0-1.26,0.14-1.76,0.43s-0.91,0.66-1.23,1.13C35.22,67.74,34.9,68.9,34.9,70.3 M32.2,70.3c0-2.14,0.67-3.87,2.01-5.2
			c1.26-1.24,2.81-1.86,4.67-1.86c1.82,0,3.34,0.62,4.56,1.86c1.3,1.32,1.95,3.05,1.95,5.2c0,2.14-0.65,3.86-1.96,5.17
			c-1.24,1.25-2.76,1.87-4.56,1.87c-1.83,0-3.38-0.63-4.65-1.87C32.87,74.16,32.2,72.43,32.2,70.3"/>
		<path class="st2" d="M54.82,65.57c-1.29,0-2.44,0.44-3.45,1.33v10.22h-2.6V63.51h2.4l0.18,1.48c1.41-1.13,2.87-1.69,4.38-1.69
			c1.6,0,2.77,0.48,3.51,1.45c0.78,1.02,1.17,2.67,1.17,4.93v7.44h-2.6v-7.44c0-2.18-0.58-3.48-1.74-3.9
			C55.7,65.64,55.28,65.57,54.82,65.57"/>
		<path class="st2" d="M66.32,70.3c0,2.25,0.71,3.78,2.13,4.59c0.5,0.28,1.11,0.42,1.81,0.42c0.7,0,1.3-0.14,1.78-0.43
			s0.88-0.66,1.2-1.13c0.58-0.9,0.87-2.05,0.87-3.46c0-2.23-0.7-3.77-2.09-4.59c-0.48-0.29-1.07-0.44-1.74-0.44
			c-0.68,0-1.26,0.14-1.76,0.43s-0.91,0.66-1.23,1.13C66.64,67.74,66.32,68.9,66.32,70.3 M63.62,70.3c0-2.14,0.67-3.87,2.01-5.2
			c1.26-1.24,2.81-1.86,4.67-1.86c1.82,0,3.34,0.62,4.56,1.86c1.3,1.32,1.95,3.05,1.95,5.2c0,2.14-0.65,3.86-1.96,5.17
			c-1.24,1.25-2.76,1.87-4.56,1.87c-1.83,0-3.38-0.63-4.65-1.87C64.29,74.16,63.62,72.43,63.62,70.3"/>
		<path class="st2" d="M82.85,66.9l0.01,10.23h-2.6V63.51h2.39l0.18,1.49c0.95-0.81,2.06-1.34,3.33-1.58
			c0.41-0.08,0.81-0.12,1.19-0.12c1.62,0,2.84,0.69,3.67,2.08c1.51-1.39,3.08-2.08,4.73-2.08c1.63,0,2.82,0.5,3.56,1.49
			c0.74,1.01,1.12,2.68,1.12,5.01v7.32h-2.6V69.9c0-2.29-0.54-3.65-1.62-4.1c-0.37-0.15-0.79-0.23-1.27-0.23
			c-1.16,0-2.23,0.42-3.2,1.27v10.29h-2.6v-7.34c0-1.56-0.23-2.67-0.69-3.3c-0.44-0.61-1.23-0.92-2.37-0.92
			C84.94,65.57,83.86,66.02,82.85,66.9"/>
	</g>
	<path d="M104.78,77.13h2.6V63.51h-2.6V77.13z M107.99,55.74l-3.01,4.84h2.31l3.74-4.84H107.99z"/>
	<g>
		<defs>
			<rect id="SVGID_3_" x="5" y="7.73" width="354.35" height="69.61"/>
		</defs>
		<clipPath id="SVGID_4_">
			<use xlink:href="#SVGID_3_"  style="overflow:visible;"/>
		</clipPath>
		<path class="st3" d="M120.35,65.45c-0.56-0.07-1.11-0.11-1.66-0.11c-0.55,0-1.14,0.1-1.76,0.3c-0.62,0.19-1.16,0.51-1.6,0.93
			c-0.92,0.88-1.38,2.22-1.38,4.02c0,1.71,0.39,2.97,1.18,3.79c0.6,0.61,1.32,0.91,2.16,0.91c1.08,0,1.97-0.4,2.68-1.2
			c0.17-0.2,0.3-0.38,0.38-0.54V65.45z M112.2,74.7c-0.29-0.5-0.44-0.75-0.44-0.75s-0.08-0.34-0.25-1.01
			c-0.17-0.68-0.25-1.56-0.25-2.65c0-1.09,0.23-2.09,0.7-3.01c0.46-0.92,1.07-1.67,1.81-2.26c1.45-1.13,3.24-1.7,5.39-1.7
			c1.12,0,1.96,0.03,2.53,0.08l1.26,0.13v13.61h-2.34l-0.1-1.57c-0.52,0.7-1.31,1.23-2.38,1.57c-0.41,0.13-0.83,0.2-1.25,0.2
			s-0.85-0.04-1.27-0.13c-0.42-0.09-0.83-0.23-1.24-0.44c-0.41-0.2-0.8-0.47-1.18-0.81C112.82,75.61,112.49,75.19,112.2,74.7"/>
		<path class="st3" d="M143.15,59.48c-0.31-0.1-0.74-0.16-1.3-0.16c-0.56,0-0.99,0.05-1.32,0.16c-0.33,0.1-0.58,0.26-0.77,0.46
			c-0.33,0.36-0.49,0.95-0.49,1.77v1.81h3.35v2.02h-3.35v11.6h-2.6v-11.6h-1.61v-1.24l1.61-0.78v-1.45c0-0.92,0.08-1.62,0.24-2.09
			c0.16-0.47,0.35-0.85,0.58-1.16c0.22-0.31,0.53-0.58,0.91-0.81c0.81-0.48,1.94-0.73,3.39-0.73c0.61,0,1.06,0.03,1.36,0.1V59.48z"
			/>
		<path class="st3" d="M147.25,70.3c0,2.25,0.71,3.78,2.13,4.59c0.5,0.28,1.11,0.42,1.81,0.42c0.7,0,1.3-0.14,1.78-0.43
			c0.48-0.29,0.88-0.66,1.2-1.13c0.58-0.9,0.87-2.05,0.87-3.46c0-2.23-0.7-3.77-2.09-4.59c-0.48-0.29-1.07-0.44-1.74-0.44
			c-0.68,0-1.26,0.14-1.76,0.43c-0.5,0.29-0.91,0.66-1.23,1.13C147.57,67.74,147.25,68.9,147.25,70.3 M144.55,70.3
			c0-2.14,0.67-3.87,2.01-5.2c1.26-1.24,2.81-1.86,4.67-1.86c1.82,0,3.34,0.62,4.56,1.86c1.3,1.32,1.95,3.05,1.95,5.2
			c0,2.14-0.65,3.86-1.96,5.17c-1.24,1.25-2.76,1.87-4.56,1.87c-1.83,0-3.38-0.63-4.65-1.87C145.22,74.16,144.55,72.43,144.55,70.3"
			/>
		<path class="st3" d="M169.65,65.93c-0.48-0.14-1.05-0.21-1.71-0.21c-0.66,0-1.21,0.07-1.63,0.2c-0.43,0.14-0.8,0.3-1.12,0.5
			c-0.59,0.35-1.02,0.75-1.29,1.19v9.53h-2.6V63.51h2.5l0.1,1.89c0.65-0.83,1.6-1.45,2.85-1.86c0.45-0.16,0.97-0.24,1.55-0.24
			c0.58,0,1.03,0.04,1.35,0.13V65.93z"/>
		<path class="st3" d="M175.05,66.9l0.01,10.23h-2.6V63.51h2.39l0.18,1.49c0.95-0.81,2.06-1.34,3.33-1.58
			c0.41-0.08,0.81-0.12,1.19-0.12c1.62,0,2.84,0.69,3.67,2.08c1.51-1.39,3.08-2.08,4.73-2.08c1.63,0,2.82,0.5,3.56,1.49
			c0.74,1.01,1.12,2.68,1.12,5.01v7.32h-2.6V69.9c0-2.29-0.54-3.65-1.62-4.1c-0.37-0.15-0.79-0.23-1.27-0.23
			c-1.16,0-2.23,0.42-3.2,1.27v10.29h-2.6v-7.34c0-1.56-0.23-2.67-0.69-3.3c-0.44-0.61-1.23-0.92-2.37-0.92
			C177.14,65.57,176.06,66.02,175.05,66.9"/>
		<path class="st3" d="M205.75,65.45c-0.56-0.07-1.11-0.11-1.66-0.11c-0.55,0-1.14,0.1-1.76,0.3c-0.62,0.19-1.16,0.51-1.6,0.93
			c-0.92,0.88-1.38,2.22-1.38,4.02c0,1.71,0.39,2.97,1.18,3.79c0.6,0.61,1.32,0.91,2.16,0.91c1.08,0,1.97-0.4,2.68-1.2
			c0.17-0.2,0.3-0.38,0.38-0.54V65.45z M197.6,74.7c-0.29-0.5-0.44-0.75-0.44-0.75s-0.08-0.34-0.25-1.01
			c-0.17-0.68-0.25-1.56-0.25-2.65c0-1.09,0.23-2.09,0.7-3.01c0.46-0.92,1.07-1.67,1.81-2.26c1.45-1.13,3.24-1.7,5.39-1.7
			c1.12,0,1.96,0.03,2.53,0.08l1.26,0.13v13.61h-2.34l-0.1-1.57c-0.52,0.7-1.31,1.23-2.38,1.57c-0.41,0.13-0.83,0.2-1.25,0.2
			s-0.85-0.04-1.27-0.13c-0.42-0.09-0.83-0.23-1.24-0.44c-0.41-0.2-0.8-0.47-1.18-0.81C198.22,75.61,197.89,75.19,197.6,74.7"/>
		<path class="st3" d="M213.26,57.5h2.6v14.47c0,1.74,0.39,2.77,1.17,3.07c0.26,0.1,0.54,0.16,0.83,0.16c0.29,0,0.56-0.03,0.79-0.11
			v2.03l-0.48,0.05c-0.16,0.02-0.31,0.03-0.46,0.03c-1.66,0-2.86-0.55-3.6-1.66c-0.57-0.87-0.86-2.06-0.86-3.56V57.5z"/>
		<path class="st3" d="M238.69,68.47c0-0.84-0.23-1.56-0.69-2.14c-0.54-0.67-1.28-1-2.22-1c-1,0-1.81,0.32-2.43,0.96
			c-0.57,0.6-0.86,1.32-0.86,2.18H238.69z M237.07,77.34c-4.9,0-7.36-2.43-7.36-7.3c0-2.09,0.68-3.77,2.04-5.03
			c1.22-1.14,2.62-1.72,4.19-1.72c1.71,0,3.04,0.58,4,1.74c0.89,1.08,1.34,2.53,1.34,4.34v1.03h-8.86c0,2.49,1,4.01,3,4.56
			c0.48,0.13,1.21,0.2,2.2,0.2c0.99,0,1.96-0.14,2.92-0.41V77C239.59,77.23,238.44,77.34,237.07,77.34"/>
		<path class="st3" d="M253.35,63.51h2.6v13.62h-2.6V63.51z M256.4,59.55c0,0.51-0.16,0.89-0.49,1.16c-0.32,0.27-0.73,0.4-1.21,0.4
			c-0.49,0-0.89-0.14-1.2-0.4c-0.32-0.27-0.47-0.66-0.47-1.16c0-0.51,0.16-0.89,0.47-1.16c0.32-0.26,0.72-0.4,1.2-0.4
			c0.48,0,0.89,0.13,1.21,0.4C256.23,58.66,256.4,59.04,256.4,59.55"/>
		<path class="st3" d="M266.26,65.57c-1.29,0-2.44,0.44-3.45,1.33v10.22h-2.6V63.51h2.4l0.18,1.48c1.41-1.13,2.87-1.69,4.38-1.69
			c1.6,0,2.77,0.48,3.51,1.45c0.78,1.02,1.17,2.67,1.17,4.93v7.44h-2.6v-7.44c0-2.18-0.58-3.48-1.74-3.9
			C267.15,65.64,266.73,65.57,266.26,65.57"/>
		<path class="st3" d="M285.57,77.09c-0.52,0.17-1.42,0.25-2.7,0.25c-1.28,0-2.37-0.16-3.27-0.47c-0.9-0.32-1.66-0.78-2.29-1.4
			c-1.31-1.28-1.96-3.04-1.96-5.3c0-2.19,0.78-3.91,2.35-5.17c1.4-1.13,3.13-1.69,5.17-1.69c1.26,0,2.13,0.04,2.6,0.13v2.35
			c-0.73-0.24-1.56-0.36-2.49-0.36c-0.93,0-1.71,0.13-2.32,0.39c-0.61,0.26-1.12,0.61-1.51,1.05c-0.74,0.84-1.11,1.93-1.11,3.3
			c0,2.3,0.82,3.84,2.46,4.6c0.58,0.27,1.15,0.41,1.7,0.41c0.56,0,0.98-0.01,1.28-0.04c0.3-0.03,0.58-0.06,0.85-0.1
			c0.57-0.1,0.99-0.2,1.24-0.3V77.09z"/>
		<path class="st3" d="M289.97,57.5h2.6v14.47c0,1.74,0.39,2.77,1.17,3.07c0.26,0.1,0.54,0.16,0.83,0.16c0.29,0,0.56-0.03,0.79-0.11
			v2.03l-0.48,0.05c-0.16,0.02-0.31,0.03-0.46,0.03c-1.66,0-2.86-0.55-3.6-1.66c-0.57-0.87-0.86-2.06-0.86-3.56V57.5z"/>
		<path class="st3" d="M307.22,73.79V63.51h2.6v13.61h-2.34l-0.24-1.44c-1.28,1.1-2.7,1.65-4.25,1.65c-1.64,0-2.81-0.46-3.5-1.38
			c-0.71-0.94-1.06-2.57-1.06-4.87v-7.57h2.6v7.44c0,1.63,0.23,2.74,0.69,3.33c0.41,0.53,1.18,0.79,2.33,0.79
			C305.2,75.07,306.26,74.64,307.22,73.79"/>
		<path class="st3" d="M317.47,77.34c-1.08,0-2.18-0.08-3.29-0.24v-2.33c1.13,0.27,2.27,0.41,3.43,0.41c2.32,0,3.48-0.5,3.48-1.49
			c0-0.38-0.09-0.66-0.28-0.84c-0.27-0.29-0.69-0.58-1.27-0.87l-1.9-0.88c-1.23-0.62-2.03-1.13-2.39-1.5
			c-0.68-0.71-1.02-1.54-1.02-2.51c0-1.09,0.5-1.98,1.49-2.67c1.08-0.74,2.58-1.11,4.52-1.11c0.98,0,1.97,0.07,2.96,0.21v2.26
			c-1.09-0.2-2.04-0.3-2.85-0.3c-0.81,0-1.44,0.05-1.89,0.16c-0.45,0.1-0.78,0.24-1.01,0.4c-0.35,0.24-0.53,0.56-0.53,0.95
			c0,0.39,0.12,0.71,0.37,0.95c0.25,0.24,0.63,0.51,1.16,0.79l1.91,0.94c1.25,0.66,2.05,1.17,2.41,1.52
			c0.68,0.67,1.01,1.51,1.01,2.52c0,1.08-0.54,1.95-1.61,2.61C321.07,76.99,319.49,77.34,317.47,77.34"/>
		<path class="st3" d="M327.67,63.51h2.6v13.62h-2.6V63.51z M330.71,59.55c0,0.51-0.16,0.89-0.49,1.16c-0.32,0.27-0.73,0.4-1.21,0.4
			c-0.49,0-0.89-0.14-1.2-0.4c-0.31-0.27-0.48-0.66-0.48-1.16c0-0.51,0.16-0.89,0.48-1.16c0.31-0.26,0.72-0.4,1.2-0.4
			c0.48,0,0.89,0.13,1.21,0.4C330.55,58.66,330.71,59.04,330.71,59.55"/>
	</g>
	<polygon points="342.82,63.51 339.15,74.56 335.5,63.51 332.7,63.51 337.85,77.13 340.46,77.13 345.6,63.51 	"/>
	<g>
		<defs>
			<rect id="SVGID_5_" x="5" y="7.73" width="354.35" height="69.61"/>
		</defs>
		<clipPath id="SVGID_6_">
			<use xlink:href="#SVGID_5_"  style="overflow:visible;"/>
		</clipPath>
		<path class="st4" d="M356.75,65.45c-0.55-0.07-1.11-0.11-1.65-0.11c-0.55,0-1.14,0.1-1.76,0.3c-0.62,0.19-1.16,0.51-1.6,0.93
			c-0.92,0.88-1.38,2.22-1.38,4.02c0,1.71,0.4,2.97,1.18,3.79c0.6,0.61,1.32,0.91,2.16,0.91c1.08,0,1.98-0.4,2.68-1.2
			c0.17-0.2,0.3-0.38,0.37-0.54V65.45z M348.6,74.7c-0.29-0.5-0.43-0.75-0.43-0.75s-0.09-0.34-0.26-1.01
			c-0.17-0.68-0.25-1.56-0.25-2.65c0-1.09,0.23-2.09,0.7-3.01c0.46-0.92,1.07-1.67,1.81-2.26c1.45-1.13,3.24-1.7,5.39-1.7
			c1.12,0,1.97,0.03,2.54,0.08l1.26,0.13v13.61h-2.34l-0.1-1.57c-0.52,0.7-1.31,1.23-2.38,1.57c-0.41,0.13-0.83,0.2-1.25,0.2
			c-0.43,0-0.85-0.04-1.27-0.13c-0.41-0.09-0.83-0.23-1.24-0.44c-0.41-0.2-0.8-0.47-1.17-0.81C349.22,75.61,348.88,75.19,348.6,74.7
			"/>
	</g>
</g>
</svg>
