<?xml version="1.0" encoding="utf-8"?>
<!-- Generator: Adobe Illustrator 25.1.0, SVG Export Plug-In . SVG Version: 6.00 Build 0)  -->
<svg version="1.1" id="Capa_1" xmlns="http://www.w3.org/2000/svg" xmlns:xlink="http://www.w3.org/1999/xlink" x="0px" y="0px"
	 viewBox="0 0 156.44 81.78" style="enable-background:new 0 0 156.44 81.78;" xml:space="preserve">
<style type="text/css">
	.st0{clip-path:url(#SVGID_2_);fill:#1D1D1B;}
	.st1{fill:#1D1D1B;}
</style>
<g>
	<g>
		<defs>
			<rect id="SVGID_1_" x="1.44" y="2.92" width="153.33" height="74.08"/>
		</defs>
		<clipPath id="SVGID_2_">
			<use xlink:href="#SVGID_1_"  style="overflow:visible;"/>
		</clipPath>
		<path class="st0" d="M16.32,17.74c-0.02,1.48-0.05,2.95-0.05,4.42c0,3.47,0.02,6.93,0.04,10.39c-4.95,0-9.9-0.01-14.85-0.01V17.7
			c4.63,0,9.25,0,13.88,0.01c0.34,0,0.68,0.03,1.02,0.05L16.32,17.74z"/>
		<path class="st0" d="M1.44,47.38c4.95,0,9.9-0.01,14.85-0.01c0,4.94,0.01,9.88,0.01,14.82l0.02-0.03
			c-2.86,0.01-5.73,0.03-8.59,0.05c-2.1,0.01-4.2,0.01-6.3,0.01V47.38z"/>
		<path class="st0" d="M16.34,17.76c-0.02-1.16-0.05-2.32-0.06-3.48c-0.01-3.47,0-6.93,0-10.39V2.92h14.74v14.77h-0.91
			c-4.29,0-8.57,0-12.86,0c-0.31,0-0.62,0.03-0.93,0.04C16.32,17.74,16.34,17.76,16.34,17.76"/>
		<path class="st0" d="M16.27,47.39c0-4.95,0-9.91,0-14.86H31v14.86H16.27z"/>
		<path class="st0" d="M16.31,62.19c4.57,0.01,9.14,0.03,13.71,0.04c0.31,0,0.62,0,0.99,0V77H16.32c-0.01-0.21-0.04-0.37-0.04-0.53
			c0-4.63,0-9.25,0-13.88c0-0.14,0.03-0.28,0.05-0.42L16.31,62.19"/>
		<path class="st0" d="M149.02,32.84c0.53-1.44,0.98-2.67,1.43-3.91c0.67-1.84,1.37-3.67,1.98-5.53c0.27-0.82,0.64-1.26,1.55-1.08
			c0.22,0.05,0.45,0.01,0.79,0.01c-0.52,1.46-1.01,2.83-1.5,4.21c-1.37,3.82-2.73,7.64-4.11,11.45c-0.18,0.51-0.39,1.01-0.66,1.47
			c-1.06,1.85-2.77,2.53-4.79,1.9c-0.2-0.06-0.4-0.36-0.44-0.57c-0.07-0.38-0.02-0.78-0.02-1.29c0.43,0.04,0.79,0.07,1.14,0.1
			c1.38,0.11,2.18-0.36,2.8-1.61c0.52-1.06,0.64-2.05,0.19-3.23c-1.24-3.26-2.35-6.57-3.45-9.88c-0.23-0.68-0.54-0.86-1.21-0.84
			c-1.36,0.05-2.71,0.01-4.11,0.01c0,3.04-0.06,5.96,0.03,8.88c0.04,1.25,0.88,1.8,2.26,1.74c0.48-0.02,0.96-0.07,1.51-0.11v1.79
			c-0.92,0-1.83,0.08-2.72-0.02c-1.98-0.22-3.04-1.28-3.14-3.28c-0.12-2.49-0.09-5-0.12-7.5c-0.01-0.45,0-0.9,0-1.46h-2.39v-1.75
			h2.38v-4.79c0.73-0.09,1.37-0.16,2.14-0.25v5.05c2.01,0,3.91,0.04,5.8-0.02c0.71-0.02,0.98,0.24,1.2,0.87
			c1,2.89,2.04,5.77,3.08,8.66C148.73,32.13,148.84,32.38,149.02,32.84"/>
		<path class="st0" d="M57.79,17.45h2.29c0.02,0.32,0.04,0.59,0.04,0.87c0,3.81,0.01,7.61-0.01,11.42c0,0.82-0.04,1.66-0.22,2.45
			c-0.48,2.13-1.85,3.48-3.94,4.06c-1.92,0.53-3.88,0.56-5.82,0.12c-2.88-0.66-4.45-2.32-4.57-5.46c-0.18-4.45-0.04-8.91-0.04-13.43
			h2.54c0.02,0.32,0.05,0.64,0.05,0.97c0.01,3.84-0.01,7.67,0.02,11.51c0.04,3.39,1.87,4.96,5.26,4.58
			c0.17-0.02,0.34-0.05,0.51-0.07c2.8-0.35,3.83-1.47,3.86-4.31c0.04-3.89,0.02-7.79,0.02-11.68
			C57.79,18.16,57.79,17.86,57.79,17.45"/>
		<path class="st0" d="M84.7,51.44v1.87h-7.44v6.94h9.57c0.11,0.18,0.16,0.23,0.16,0.28c0.15,1.78,0.15,1.78-1.6,1.78h-9.46h-1.08
			v-18.9h11.81v1.94h-9.46c0,1.96-0.01,3.83,0.03,5.69c0,0.14,0.43,0.38,0.67,0.38c1.93,0.03,3.86,0.02,5.8,0.02H84.7z"/>
		<path class="st0" d="M103.11,27.92c0-1.56-0.43-2.87-1.75-3.7c-1.26-0.79-2.61-0.79-3.88-0.02c-1.36,0.83-1.94,2.12-2.07,3.72
			H103.11z M105.25,32.61c-0.51,1.53-1.46,2.61-2.81,3.32c-3.78,2.01-8.07,0.17-9.2-3.95c-0.55-2-0.48-3.99,0.29-5.93
			c1.08-2.73,3.57-4.29,6.36-4.02c2.94,0.29,4.91,2.17,5.42,5.23c0.12,0.72,0.16,1.45,0.24,2.29H95.43
			c-0.49,2.11,0.63,4.31,2.5,5.04c2.03,0.8,4.01,0.07,5.06-1.88c0.2-0.38,0.38-0.57,0.84-0.42
			C104.25,32.45,104.71,32.5,105.25,32.61"/>
		<path class="st0" d="M125.11,53.83c0.12-2.51-1.41-4.25-3.66-4.26c-2.2-0.01-3.99,1.91-3.93,4.26H125.11z M127.24,58.54
			c-0.68,2.18-2.71,3.79-5.07,4.01c-2.66,0.25-4.87-0.57-6.2-2.99c-1.39-2.52-1.43-5.18-0.33-7.81c1.11-2.66,3.62-4.11,6.42-3.81
			c2.73,0.29,4.62,2.06,5.22,4.96c0.17,0.79,0.19,1.61,0.29,2.52h-10.06c-0.57,1.83,0.47,4.11,2.18,4.95
			c1.81,0.88,3.88,0.39,5.02-1.21c0.79-1.11,0.79-1.11,2.13-0.75C126.99,58.44,127.11,58.49,127.24,58.54"/>
		<path class="st0" d="M56.74,55.36c-0.26-1.21-0.39-2.32-0.75-3.35c-0.53-1.5-1.95-2.39-3.42-2.36c-1.48,0.03-2.83,0.97-3.33,2.49
			c-0.7,2.11-0.69,4.25,0.09,6.34c0.54,1.45,1.65,2.22,3.18,2.29c1.51,0.07,2.7-0.61,3.29-1.98C56.27,57.69,56.45,56.47,56.74,55.36
			 M59.11,55.25c-0.29,1.17-0.46,2.39-0.9,3.51c-1,2.54-3.24,3.87-6.07,3.79c-2.41-0.07-4.3-1.54-5.2-4.09
			c-0.67-1.9-0.75-3.84-0.23-5.78c0.84-3.12,3.23-4.89,6.39-4.77c2.84,0.1,5.06,2.2,5.64,5.35c0.12,0.64,0.16,1.29,0.24,1.94
			C59.02,55.21,59.06,55.23,59.11,55.25"/>
		<path class="st0" d="M113.12,51.34c-0.57,0.15-0.8,0.21-1.01,0.27c-0.72,0.23-1.21,0.19-1.71-0.6c-0.97-1.53-3.84-1.85-5.32-0.75
			c-0.57,0.43-0.83,1-0.74,1.71c0.09,0.71,0.47,1.26,1.17,1.43c1.26,0.31,2.55,0.53,3.82,0.82c0.66,0.15,1.34,0.3,1.95,0.59
			c2.7,1.27,2.98,4.95,0.53,6.65c-2.21,1.53-6.24,1.49-8.41-0.09c-0.92-0.67-1.56-1.54-1.85-2.76c0.66-0.14,1.29-0.26,1.9-0.39
			c1.37,2.26,3.61,3.13,6.02,2.34c1.13-0.36,1.74-1.08,1.77-2.04c0.02-0.91-0.55-1.61-1.74-1.92c-1.1-0.29-2.23-0.44-3.33-0.69
			c-0.66-0.15-1.33-0.33-1.94-0.62c-2.66-1.26-2.9-4.73-0.47-6.39c1.99-1.36,5.61-1.34,7.49,0.18
			C111.96,49.63,112.42,50.46,113.12,51.34"/>
		<path class="st0" d="M99.37,51.42c-0.52,0.12-1,0.29-1.5,0.33c-0.2,0.02-0.52-0.18-0.62-0.37c-1.02-1.92-3.97-2.15-5.51-1.2
			c-0.65,0.39-0.93,0.99-0.86,1.73c0.07,0.75,0.47,1.31,1.21,1.49c1.26,0.31,2.55,0.52,3.83,0.81c0.66,0.15,1.33,0.32,1.94,0.6
			c1.35,0.63,2.07,1.74,2.16,3.23c0.09,1.48-0.5,2.65-1.75,3.47c-2.24,1.46-6.07,1.41-8.27-0.11c-1-0.69-1.63-1.65-1.83-2.82
			c0.62-0.12,1.25-0.25,1.86-0.37c1.28,2.26,3.7,3.16,6.11,2.31c1.06-0.37,1.65-1.1,1.65-2.04c0-0.88-0.55-1.57-1.68-1.88
			c-1.09-0.29-2.22-0.44-3.33-0.7c-0.69-0.16-1.37-0.36-2.02-0.64c-1.28-0.56-2.01-1.56-2.1-2.96c-0.09-1.44,0.46-2.61,1.67-3.42
			c1.96-1.31,5.45-1.28,7.37,0.09C98.54,49.55,99.12,50.33,99.37,51.42"/>
		<path class="st0" d="M115.15,32.69c0.72-0.13,1.35-0.25,1.96-0.36c1.14,2.38,4.45,3.36,6.66,2.04c0.72-0.43,1.08-1.06,1.04-1.91
			c-0.04-0.82-0.52-1.36-1.23-1.58c-1.03-0.32-2.1-0.47-3.14-0.75c-1.01-0.27-2.08-0.47-2.97-0.96c-2.06-1.12-2.37-4.04-0.7-5.69
			c2.03-2.02,6.75-1.94,8.67,0.19c0.44,0.49,0.72,1.13,1.14,1.81c-0.62,0.15-1.08,0.32-1.54,0.36c-0.24,0.02-0.59-0.14-0.72-0.34
			c-1.15-1.68-3.59-2.29-5.37-1.3c-0.71,0.4-1.07,0.99-1,1.82c0.06,0.77,0.49,1.31,1.19,1.5c1.21,0.31,2.44,0.5,3.66,0.77
			c0.63,0.14,1.28,0.28,1.88,0.53c1.42,0.6,2.26,1.68,2.38,3.25c0.12,1.59-0.47,2.89-1.88,3.64c-2.65,1.4-5.35,1.38-7.97-0.11
			C116.14,35,115.49,34.03,115.15,32.69"/>
		<path class="st0" d="M73.45,36.41h-2c-0.01-0.31-0.04-0.61-0.04-0.91c0-2.73,0-5.45,0-8.18c-0.01-2.04-0.54-2.93-1.98-3.33
			c-1.46-0.41-3.11,0.3-4.02,1.72c-0.69,1.08-0.79,2.29-0.8,3.52c-0.02,2.05-0.01,4.09-0.01,6.13v1h-2.04v-13.9h1.96v2.45
			c0.33-0.46,0.51-0.73,0.7-0.99c1.19-1.59,3.15-2.25,5.08-1.72c1.77,0.49,3.05,1.92,3.11,3.92C73.52,29.52,73.45,32.92,73.45,36.41
			"/>
		<path class="st0" d="M128.73,48.27c0.73,0,1.31-0.06,1.86,0.02c0.33,0.05,0.74,0.26,0.92,0.53c0.89,1.34,1.72,2.73,2.65,4.23
			c0.82-1.28,1.64-2.39,2.27-3.61c0.53-1.02,1.23-1.38,2.3-1.2c0.16,0.03,0.34,0,0.67,0c-0.2,0.34-0.34,0.6-0.49,0.84
			c-1.09,1.67-2.16,3.34-3.27,4.99c-0.29,0.42-0.27,0.71,0,1.13c1.37,2.16,2.71,4.34,4.05,6.51c0.1,0.16,0.19,0.34,0.37,0.65
			c-0.83,0-1.55,0.04-2.26-0.03c-0.21-0.02-0.43-0.33-0.57-0.55c-1.05-1.65-2.07-3.32-3.17-5.08c-1,1.54-1.93,2.99-2.87,4.44
			c-0.93,1.44-1.08,1.49-2.98,1.15c1-1.55,1.98-3.07,2.96-4.58c0.45-0.69,0.87-1.4,1.36-2.07c0.32-0.44,0.29-0.77,0-1.22
			c-1.11-1.72-2.17-3.47-3.25-5.2C129.12,48.95,128.98,48.69,128.73,48.27"/>
		<path class="st0" d="M80.14,22.41c0.79,0,1.42-0.07,2.02,0.04c0.25,0.05,0.52,0.45,0.62,0.75c1.11,3.16,2.18,6.33,3.27,9.49
			c0.09,0.26,0.2,0.52,0.38,0.99c0.37-1.08,0.68-1.97,0.98-2.86c0.82-2.45,1.69-4.88,2.43-7.35c0.28-0.93,0.7-1.33,1.66-1.15
			c0.21,0.04,0.44,0.03,0.77,0.05c-0.45,1.34-0.88,2.63-1.32,3.91c-1.01,2.95-2.01,5.91-3.05,8.85c-0.57,1.6-0.12,1.26-1.85,1.34
			c-0.72,0.03-1.02-0.21-1.25-0.89c-1.1-3.22-2.27-6.42-3.41-9.63C81,24.84,80.6,23.72,80.14,22.41"/>
		<path class="st0" d="M59.35,49.98v-1.68h2.41c0.09-1.86,0.37-3.58,2.01-4.64c1.47-0.95,3.06-0.56,4.72-0.37
			c-0.15,0.57-0.29,1.07-0.44,1.62c-1.23-0.01-2.64-0.63-3.51,0.54c-0.51,0.68-0.54,1.72-0.84,2.77h3.43v1.7h-3.14
			c-0.02,0.42-0.05,0.75-0.05,1.08c0,3.38,0,6.77,0,10.15c0,1.15,0,1.15-1.17,1.13c-0.28,0-0.56-0.02-0.94-0.04V49.98H59.35z"/>
		<path class="st0" d="M109.78,36.39h-2.05V22.45h1.83v2.9c1.04-2.01,2.27-3.62,4.91-3.28v1.99c-0.48,0.06-0.97,0.05-1.42,0.19
			c-1.87,0.55-2.93,1.93-3.11,3.76c-0.22,2.28-0.13,4.59-0.16,6.88C109.78,35.37,109.78,35.85,109.78,36.39"/>
		<path class="st0" d="M78.3,36.39h-2.02c-0.02-0.31-0.05-0.59-0.05-0.86c0-4.03,0.03-8.06-0.02-12.09
			c-0.01-0.89,0.26-1.18,1.1-1.05c0.3,0.05,0.62,0.01,0.99,0.01V36.39z"/>
	</g>
	<rect x="129.55" y="22.45" class="st1" width="2" height="13.93"/>
	<rect x="129.44" y="17.54" class="st1" width="2.24" height="2.29"/>
	<rect x="76.22" y="17.54" class="st1" width="2.22" height="2.28"/>
</g>
</svg>
